<svg width="38" height="38" viewBox="0 0 38 38" fill="none" xmlns="http://www.w3.org/2000/svg">
<path d="M0.00230717 18.9725C0.00230717 16.3265 -0.00359918 13.6802 0.00348844 11.0342C0.0196325 4.92309 4.89926 0.0243684 11.0001 0.00901185C16.0162 -0.00358836 21.0324 -0.00280085 26.0485 0.00920873C31.6808 0.0227933 36.4333 4.38187 36.9091 10.0057C37.0251 11.3774 36.9944 12.7628 36.9975 14.1421C37.0075 18.3529 37.0046 22.5636 37.0003 26.7744C36.9947 32.1866 33.4994 36.5815 28.2335 37.7569C27.5003 37.9205 26.7307 37.9825 25.9776 37.9854C20.9846 38.0049 15.9914 38.0014 10.9984 37.9939C4.89217 37.9847 0.0164824 33.0975 0.00329156 26.9798C-0.00261479 24.3107 0.00230717 21.6416 0.00230717 18.9725ZM33.4637 19.0357C33.4645 19.0357 33.4653 19.0357 33.4661 19.0357C33.4661 16.4586 33.4708 13.8816 33.462 11.3045C33.4602 10.8001 33.4578 10.2861 33.3663 9.79307C32.651 5.94371 29.6315 3.51364 25.5536 3.50557C20.8137 3.49632 16.0737 3.49868 11.3338 3.51364C10.717 3.51561 10.0862 3.55833 9.48593 3.69103C5.87715 4.48917 3.49099 7.48566 3.48941 11.1815C3.48725 16.3816 3.48705 21.5817 3.48941 26.7819C3.49138 31.1607 6.76409 34.4863 11.144 34.5084C16.068 34.533 20.9923 34.5352 25.916 34.5052C30.1855 34.4792 33.4429 31.176 33.4616 26.9047C33.4732 24.2819 33.4637 21.6587 33.4637 19.0357Z" fill="white"/>
<path d="M8.51454 18.9473C8.57793 13.2941 12.9616 8.92244 18.5097 8.97993C24.5247 9.04214 28.5294 13.0579 28.4676 18.9652C28.4095 24.5111 23.8598 29.0091 18.3976 28.9207C12.8764 28.8316 8.4537 24.3685 8.51454 18.9473ZM12.028 18.9884C12.0377 22.5372 14.9389 25.4232 18.4904 25.4169C22.1218 25.4104 24.9889 22.4322 24.9694 18.687C24.9497 14.8951 22.3228 12.444 18.3142 12.4767C14.8164 12.5052 12.0182 15.4039 12.028 18.9884Z" fill="white"/>
<path d="M28.5387 10.5213C27.5961 10.492 26.8434 9.71568 26.8519 8.78169C26.8609 7.79454 27.6957 7.00605 28.6921 7.04326C29.6194 7.07791 30.387 7.87526 30.3797 8.79646C30.3723 9.78616 29.5538 10.5528 28.5387 10.5213Z" fill="white"/>
</svg>
