<svg width="41" height="40" viewBox="0 0 41 40" fill="none" xmlns="http://www.w3.org/2000/svg">
<path d="M19.6752 0.00330481C30.8603 -0.198188 39.9101 8.84068 40.0052 19.8001C40.1026 31.02 30.973 40.0706 19.8535 39.9996C8.98172 39.9303 0.0455535 31.018 0.000181109 20.1416C-0.046411 8.97753 8.90293 0.148204 19.6752 0.00330481ZM16.9636 14.3012C19.5733 14.3264 22.0343 14.5361 24.4642 15.0408C27.048 15.5775 29.5357 16.3764 31.8353 17.7115C32.7918 18.2667 33.9095 17.944 34.4222 17.0411C34.9418 16.1266 34.6418 15.0406 33.6772 14.473C33.0662 14.1134 32.4385 13.7753 31.7938 13.4809C28.0545 11.7728 24.0942 10.9712 20.0182 10.6814C17.5691 10.5073 15.1199 10.5417 12.6769 10.8112C10.9452 11.0022 9.2364 11.3152 7.56811 11.8189C6.52381 12.1343 5.97788 13.1291 6.26353 14.1217C6.56357 15.164 7.55176 15.7129 8.63728 15.3958C11.4004 14.5881 14.2315 14.3298 16.9636 14.3012ZM16.6831 17.4792C16.3282 17.4792 15.973 17.4697 15.6183 17.4807C13.2899 17.5527 11.0015 17.8803 8.7673 18.5545C8.34358 18.6824 7.98865 18.8995 7.75984 19.2866C7.42955 19.8454 7.47029 20.538 7.85254 21.0195C8.28504 21.5645 8.89464 21.7316 9.60133 21.5618C10.6688 21.3057 11.7358 21.0288 12.8186 20.8585C14.8482 20.5397 16.8926 20.5097 18.9427 20.6809C21.1701 20.8671 23.3394 21.3071 25.4536 22.0343C26.8682 22.521 28.2113 23.153 29.503 23.9051C30.2833 24.3595 31.1986 24.1148 31.6355 23.3743C32.0724 22.6339 31.846 21.7052 31.0881 21.2415C30.5441 20.9088 29.9896 20.5875 29.4176 20.3065C25.4029 18.3343 21.1318 17.4953 16.6831 17.4792ZM17.9799 23.9773C14.3881 23.977 11.9202 24.3222 9.47375 24.8454C9.07662 24.9303 8.74657 25.1252 8.53361 25.485C8.26113 25.9451 8.3126 26.4032 8.60167 26.8221C8.95538 27.3351 9.47765 27.4426 10.0519 27.2975C11.8707 26.8382 13.7214 26.5942 15.5898 26.494C18.7219 26.3261 21.7806 26.7077 24.7052 27.8825C25.6007 28.242 26.4472 28.7248 27.3102 29.1627C27.6532 29.3366 27.9881 29.5029 28.3889 29.4034C28.9222 29.271 29.2771 28.8694 29.3542 28.3069C29.4242 27.7971 29.132 27.3243 28.5699 26.9911C24.9699 24.8562 21.041 23.9982 17.9799 23.9773Z" fill="white"/>
</svg>
