<svg xmlns="http://www.w3.org/2000/svg" viewBox="0 0 240.86 214.94"><defs><style>.cls-1{fill:#fff;fill-rule:evenodd;}.cls-2{fill:#e64b0f;}</style></defs><title>logo_patička</title><g id="Vrstva_2" data-name="Vrstva 2"><g id="Vrstva_1-2" data-name="Vrstva 1"><path class="cls-1" d="M132.94,36.32l4.6-4.53-4.6-4.53,2.8-2.76L140.35,29,145,24.5l2.81,2.76-4.61,4.53,4.61,4.53L145,39.08l-4.6-4.53-4.61,4.53ZM18.42,5.39c8.56-1.65,29.8-8.25,36.34-4,9.36,6.13,16,38.08,27.91,41C87.38,43.6,132,47.07,149,47.07c13,0,29.09-1.1,40,7,11.42,8.42,49.72,79.26,51.78,89.37.71,3.51-6.91,7.31-9.18,8.8-10.89,7.14-101.48,48.84-128.46,57-9.68,2.93-27-.3-33,.87-2.53.5-26.55,5-26.83,4.87-2.66-.88-21.91-74.25-25.89-91.23C11.7,99.05-4.12,28.57,1,21.83c1.36-1.78,4.51-1.36,6.12-3.47C10.41,14.06,7.2,7.57,18.42,5.39Z"/><path class="cls-2" d="M40.78,104.58a3.07,3.07,0,0,0,.63,2.22,2.56,2.56,0,0,0,1.84.6,6.11,6.11,0,0,0,1.08-.1,3.91,3.91,0,0,0,1-.3v6.1a8.46,8.46,0,0,1-1.79.46,13.36,13.36,0,0,1-1.93.15,15.5,15.5,0,0,1-3.17-.31,6.36,6.36,0,0,1-2.66-1.18,6.16,6.16,0,0,1-1.86-2.52,11.07,11.07,0,0,1-.71-4.31V80h7.59Z"/><path class="cls-2" d="M91.45,107v6.15H71.14V106.8L82.6,95.6H71.39V89.45H91.14v6.2L79.84,107.1ZM78.83,86.83l-6.38-6.66,3.06-3.33L81,81.53l5.53-4.69,3.07,3.33L83.2,86.83Z"/><path class="cls-2" d="M53,87.18l-2.52-3.53L59.53,76l3.77,5.5Zm7.64,15.89H57.17a4.8,4.8,0,0,0-3,.83,2.57,2.57,0,0,0-.9,2A2.65,2.65,0,0,0,54,108a3,3,0,0,0,2.08.7,4.29,4.29,0,0,0,3.19-1.18,4.49,4.49,0,0,0,1.34-2.85Zm.18,13.08c0-2,.09-4.41.07-5.27A9.78,9.78,0,0,1,58,113.1a8.55,8.55,0,0,1-4,.86A10.27,10.27,0,0,1,51,113.5a7.84,7.84,0,0,1-2.67-1.36,6.68,6.68,0,0,1-1.86-2.32,7.35,7.35,0,0,1-.7-3.32,6.3,6.3,0,0,1,2.86-5.63A14.23,14.23,0,0,1,56.51,99h4.13v-.91a2.92,2.92,0,0,0-1.18-2.42c-.79-.6-2.21-.91-4.25-.91a16.36,16.36,0,0,0-3.82.43,18.77,18.77,0,0,0-3,1L47,90.46a19.25,19.25,0,0,1,3.69-1.31,20.3,20.3,0,0,1,5.25-.61q5.88,0,9,2.4T68.13,99s.3,9.16.27,11.37c0,.39,0,1.67,0,3.1Z"/><path class="cls-2" d="M105.79,95a6.47,6.47,0,0,0-6.07,4.77c-1,4,2.62,8.56,7.19,7.77A6.32,6.32,0,0,0,106,95Zm.12-6.31a12.63,12.63,0,0,1,8.65,21.71,12.57,12.57,0,0,1-21.2-7.4,13,13,0,0,1,7.29-13.19A12.72,12.72,0,0,1,105.91,88.64Z"/><path class="cls-2" d="M124.81,114.24a2,2,0,0,0,.37,1.24,1.67,1.67,0,0,0,1.4.5h.79v-2.41h1.46V116h8.33v1.63h-8.33v1.31h-1.46v-1.31h-.61a3.84,3.84,0,0,1-1.56-.29,3.14,3.14,0,0,1-1.06-.78,3.19,3.19,0,0,1-.62-1.09,4,4,0,0,1-.19-1.25,3.85,3.85,0,0,1,.12-.94,3.91,3.91,0,0,1,.42-1l1.37.43a3.52,3.52,0,0,0-.34.84A3.26,3.26,0,0,0,124.81,114.24Z"/><path class="cls-2" d="M131.33,105.59a3.6,3.6,0,0,0-1,.13,2.5,2.5,0,0,0-.89.45,2.33,2.33,0,0,0-.63.81,2.64,2.64,0,0,0-.24,1.18,2.78,2.78,0,0,0,.22,1.13,2.73,2.73,0,0,0,.59.87,3.06,3.06,0,0,0,.86.61,3.4,3.4,0,0,0,1.06.29Zm.08-1.74H132c.18,0,.39,0,.63,0v7.19a3.45,3.45,0,0,0,2.29-.93,3,3,0,0,0,.9-2.26,5,5,0,0,0-.32-1.9,2.74,2.74,0,0,0-.32-.59c-.11-.17-.22-.32-.32-.46l1.36-.67a6.34,6.34,0,0,1,.8,1.47,6,6,0,0,1,.34,2.19,5.49,5.49,0,0,1-.35,2,4.45,4.45,0,0,1-1,1.55,4.74,4.74,0,0,1-1.61,1,6.08,6.08,0,0,1-2.12.35,5.71,5.71,0,0,1-2.09-.37,4.89,4.89,0,0,1-1.64-1,4.52,4.52,0,0,1-1.08-1.48,4.74,4.74,0,0,1-.06-3.57,4.19,4.19,0,0,1,.9-1.36,4.14,4.14,0,0,1,1.36-.9A4.67,4.67,0,0,1,131.41,103.85Z"/><path class="cls-2" d="M127.1,98.39a6.61,6.61,0,0,1,.22-1.87,8.57,8.57,0,0,1,.49-1.31l1.43.36a7,7,0,0,0-.46,1.23,5.49,5.49,0,0,0-.2,1.59,3,3,0,0,0,.36,1.63,1.07,1.07,0,0,0,.93.57.89.89,0,0,0,.6-.2,1.58,1.58,0,0,0,.4-.53,3.74,3.74,0,0,0,.27-.78c.07-.29.14-.6.21-.94s.19-.8.31-1.2a3.82,3.82,0,0,1,.53-1.07,2.6,2.6,0,0,1,.88-.76,2.8,2.8,0,0,1,1.34-.29,2.54,2.54,0,0,1,2.24,1.06,5.1,5.1,0,0,1,.74,2.93,6.5,6.5,0,0,1-.34,2.25,6.05,6.05,0,0,1-.78,1.51l-1.38-.66a8,8,0,0,0,.67-1.13,4.67,4.67,0,0,0,.35-2,3.21,3.21,0,0,0-.37-1.69,1.24,1.24,0,0,0-1.13-.61.9.9,0,0,0-.59.2,1.54,1.54,0,0,0-.41.54,3.94,3.94,0,0,0-.27.8c-.07.3-.15.61-.23,1s-.19.78-.31,1.17a4.27,4.27,0,0,1-.51,1,2.49,2.49,0,0,1-.84.77,2.63,2.63,0,0,1-1.3.29,2.45,2.45,0,0,1-2.08-1A4.63,4.63,0,0,1,127.1,98.39Z"/><path class="cls-2" d="M136.41,86.62a3.61,3.61,0,0,1,.7,1,3.42,3.42,0,0,1,.28,1.49,3.11,3.11,0,0,1-.85,2.35,3.37,3.37,0,0,1-2.44.83h-5.38v1.57h-1.35V92.31h-2.21l-.38-1.69h2.59V87.4h1.35v3.22h5.05a4,4,0,0,0,1.08-.13,1.49,1.49,0,0,0,.66-.36,1.17,1.17,0,0,0,.32-.53,2.61,2.61,0,0,0,.08-.64,1.77,1.77,0,0,0-.25-1,4.54,4.54,0,0,0-.46-.62Z"/><path class="cls-2" d="M44.9,146A5.1,5.1,0,0,0,49,144.18a7,7,0,0,0,1.56-4.74,8.72,8.72,0,0,0-1-4.47A3.78,3.78,0,0,0,46,133.33a5.47,5.47,0,0,0-1.79.28,4.16,4.16,0,0,0-1.3.73,3.89,3.89,0,0,0-.86,1,11.28,11.28,0,0,0-.53,1v9A7.63,7.63,0,0,0,44.9,146Zm2.87-19.06a9.34,9.34,0,0,1,7.59,3.25c1.8,2.17,2.71,5.27,2.71,9.3a14.26,14.26,0,0,1-.93,5.25,11.92,11.92,0,0,1-2.59,4.06,11.44,11.44,0,0,1-4,2.62,14.15,14.15,0,0,1-5.23.94,16.66,16.66,0,0,1-3.77-.36v9H34V133.69a16.18,16.18,0,0,0-.3-3.33,11.37,11.37,0,0,0-.8-2.47l7.24-1.16a10,10,0,0,1,1,2.77,9.11,9.11,0,0,1,2.72-1.84A9.25,9.25,0,0,1,47.77,126.93Z"/><path class="cls-2" d="M83.7,147.1a4.29,4.29,0,0,0,3.19-1.18,4.5,4.5,0,0,0,1.33-2.85v-1.62H84.76a4.86,4.86,0,0,0-3,.83,2.6,2.6,0,0,0-.9,2.05,2.66,2.66,0,0,0,.78,2.07A3,3,0,0,0,83.7,147.1Zm5.88,5.35a10.16,10.16,0,0,1-1.1-3.18,9.78,9.78,0,0,1-2.87,2.22,8.55,8.55,0,0,1-4,.86,10.6,10.6,0,0,1-3.06-.46,8,8,0,0,1-2.67-1.36,6.68,6.68,0,0,1-1.86-2.32,7.36,7.36,0,0,1-.7-3.33,6.28,6.28,0,0,1,2.86-5.62,14.21,14.21,0,0,1,7.89-1.89h4.12v-.91A2.88,2.88,0,0,0,87,134c-.78-.61-2.2-.91-4.24-.91a16.36,16.36,0,0,0-3.82.43,18.83,18.83,0,0,0-3,1l-1.41-5.7a20.1,20.1,0,0,1,3.7-1.31,20.71,20.71,0,0,1,5.25-.6q5.88,0,9,2.39t3.16,8.1v8.07a17.44,17.44,0,0,0,.28,3.3,9.79,9.79,0,0,0,.83,2.5Zm-9-26.88L78.07,122l9.05-7.67,3.77,5.5Z"/><path class="cls-2" d="M119,145.39v6.15H98.73v-6.36L110.19,134H99v-6.15h19.75V134l-11.31,11.45Zm-12.61-20.18L100,118.56l3.06-3.33,5.48,4.69,5.53-4.69,3.06,3.33-6.38,6.65Z"/><path class="cls-2" d="M68.37,118.46V143a3,3,0,0,0,.63,2.22,2.51,2.51,0,0,0,1.83.61,6.13,6.13,0,0,0,1.09-.1,3.91,3.91,0,0,0,1-.3v6.1a8.06,8.06,0,0,1-1.79.45,13.47,13.47,0,0,1-1.93.15,16.24,16.24,0,0,1-3.17-.3,6.43,6.43,0,0,1-2.66-1.18,6.13,6.13,0,0,1-1.86-2.53,11,11,0,0,1-.71-4.31V121.12Z"/><path class="cls-2" d="M186.33,80.76v5.62c.64-.36,1.29-.7,1.95-1V80.21Zm-2,6.84V81.33l-3.11.88v7.65A36.84,36.84,0,0,1,184.3,87.6Zm-5.14,4V82.79l-3.11.88V95.05A31.18,31.18,0,0,1,179.16,91.64Zm-30.84-.13-2.19.62V97a17.67,17.67,0,0,1,2.19.08Zm5.14,6.75v-8.2l-3.11.88v6.42A18.74,18.74,0,0,1,153.46,98.26Zm5.14,3V88.61l-3.11.88v9.69A18,18,0,0,1,158.6,101.24ZM174,98V84.24l-3.11.88v20.57l.13,0A24.47,24.47,0,0,1,174,98Zm-8.25-11.44v20.51l3.11-.84V85.7Zm-2,21.07V87.15l-3.11.88v15.14a19.78,19.78,0,0,1,3.05,4.5Zm15,12.7a6.49,6.49,0,0,0-6.08,4.81c-1,4.31,3.45,9.43,8.49,7.36a6.55,6.55,0,0,0,3.19-8.82,6.42,6.42,0,0,0-5.44-3.35ZM132.87,133a6.49,6.49,0,0,0-6.07,4.77c-1.08,4.33,3.46,9.46,8.49,7.4a6.55,6.55,0,0,0,3.2-8.79A6.43,6.43,0,0,0,133,133Zm9.65-2.32V85.34l49.36-14.13v55.48a1.27,1.27,0,0,1-.08.44,12.07,12.07,0,0,1-1.18,5.28,13.6,13.6,0,0,1-16.81,6.49c-6.65-2.73-10.14-11.54-6.73-18.21a13.41,13.41,0,0,1,11.53-7.18H179a12.91,12.91,0,0,1,9.33,4.61V89.42c-6.9,3.78-12.47,9.78-13.86,17.78l-.22,1.34L161.65,112l-.71-1.65a15.61,15.61,0,0,0-14.81-9.76v39.1a2.66,2.66,0,0,1-.09.64,11.87,11.87,0,0,1-1.17,4.65,13.58,13.58,0,0,1-16.8,6.5c-6.61-2.71-10.11-11.4-6.81-18.07a13.4,13.4,0,0,1,11.6-7.32h.34A12.86,12.86,0,0,1,142.52,130.71Z"/></g></g></svg>