<svg width="38" height="38" viewBox="0 0 38 38" fill="none" xmlns="http://www.w3.org/2000/svg">
<path d="M15.0121 34.0023C15.0121 29.0112 15.0121 24.0529 15.0121 19.0454C13.9922 19.0454 13.0068 19.0454 12 19.0454C12 17.3303 12 15.6644 12 13.9591C12.7592 13.9591 13.5068 13.9591 14.2545 13.9591C14.3759 13.9591 14.4972 13.9526 14.6185 13.9608C14.9006 13.9772 15.0186 13.8837 15.0153 13.5689C15.0039 12.1998 15.0268 10.829 15.0285 9.45991C15.035 6.60199 16.8354 4.49174 19.6769 4.15725C20.9706 4.00477 22.2872 4.04084 23.594 4.00968C24.3794 3.99001 25.1665 4.0064 25.983 4.0064C25.983 5.77232 25.983 7.51036 25.983 9.29595C25.8404 9.29595 25.6994 9.29595 25.5583 9.29595C24.6123 9.29595 23.6662 9.31398 22.7201 9.28939C22.0593 9.27299 21.2247 9.92558 21.269 10.7421C21.3247 11.78 21.2821 12.8229 21.2821 13.9296C22.8677 13.9296 24.4221 13.9296 26.0371 13.9296C25.8387 15.6677 25.6469 17.3336 25.4534 19.024C24.0433 19.024 22.6873 19.024 21.2674 19.024C21.2674 24.0283 21.2674 29.0047 21.2674 34.004C19.1588 34.0023 17.1157 34.0023 15.0121 34.0023Z" fill="black"/>
</svg>
