<svg width="38" height="38" viewBox="0 0 38 38" fill="none" xmlns="http://www.w3.org/2000/svg">
<path d="M4.00178 18.8616C4.00178 16.6494 3.99684 14.4372 4.00342 12.225C4.01659 7.1158 8.09701 3.02057 13.1979 3.00741C17.3919 2.99753 21.5859 2.99753 25.7782 3.00741C30.4874 3.01893 34.4609 6.66315 34.8575 11.3658C34.9546 12.513 34.9283 13.6701 34.9316 14.824C34.9398 18.3448 34.9382 21.8655 34.9333 25.3847C34.9283 29.9095 32.0067 33.5833 27.6036 34.566C26.9913 34.7026 26.3478 34.7553 25.7173 34.7569C21.5431 34.7734 17.3689 34.7701 13.1946 34.7635C8.09042 34.7553 4.0133 30.6699 4.00178 25.5558C3.99849 23.3239 4.00178 21.0919 4.00178 18.8616ZM31.9771 18.9143H31.9787C31.9787 16.7597 31.982 14.6051 31.9754 12.4505C31.9738 12.0291 31.9721 11.5995 31.8948 11.1863C31.2973 7.96843 28.7723 5.93563 25.3635 5.92904C21.3999 5.92081 17.438 5.9241 13.4745 5.93563C12.9593 5.93727 12.4309 5.97348 11.9289 6.08377C8.91342 6.75204 6.91847 9.25724 6.91683 12.3484C6.91518 16.6955 6.91518 21.0442 6.91683 25.3912C6.91847 29.0519 9.65411 31.832 13.3164 31.8501C17.4331 31.8715 21.5497 31.8732 25.6663 31.8468C29.2365 31.8254 31.9589 29.0635 31.9754 25.4933C31.9853 23.2992 31.9771 21.1067 31.9771 18.9143Z" fill="#3724B6"/>
<path d="M11.1197 18.8405C11.1723 14.1148 14.838 10.4591 19.4764 10.5068C24.5049 10.5595 27.8528 13.9157 27.8018 18.8553C27.7541 23.492 23.9502 27.2531 19.3825 27.1791C14.7655 27.1033 11.0686 23.3719 11.1197 18.8405ZM14.0561 18.875C14.0643 21.8428 16.4889 24.2541 19.4583 24.2492C22.4935 24.2443 24.8917 21.7539 24.8752 18.6232C24.8588 15.453 22.663 13.4038 19.3118 13.4317C16.3885 13.4548 14.0479 15.8777 14.0561 18.875Z" fill="#3724B6"/>
<path d="M27.8609 11.7955C27.0724 11.7708 26.4437 11.1223 26.4502 10.3405C26.4585 9.51582 27.1564 8.85578 27.9893 8.88705C28.7645 8.91668 29.4064 9.58331 29.3999 10.3536C29.3933 11.1816 28.7085 11.8219 27.8609 11.7955Z" fill="#3724B6"/>
</svg>
