<svg width="35" height="35" viewBox="0 0 38 38" fill="none" xmlns="http://www.w3.org/2000/svg">
<path d="M35.303 19.3717C31.5171 13.3877 28.3571 5.47084 27.3732 2.75517C27.1329 2.09212 26.4787 1.94666 25.9718 1.94172L21.7952 1.67799C21.1144 1.77701 20.9626 2.20917 21.0561 2.61885C23.1087 11.5983 21.1015 19.7039 20.0215 22.6161C19.86 23.0507 19.2231 23.03 19.0908 22.5862C17.8288 18.3541 14.5157 8.83401 13.6938 6.4811C13.5767 6.146 13.3001 5.88818 12.9516 5.78842L9.13749 4.69519C8.92509 4.63444 8.78087 4.4433 8.78391 4.22746C8.79785 3.15053 8.76034 1.59897 8.7393 0.838863C8.73195 0.583767 8.52132 0.379044 8.2595 0.372129L8.24175 0.371885C7.96117 0.364476 7.7328 0.586481 7.73787 0.859851C7.98043 14.3953 3.87255 29.5156 3.15601 32.0441C3.09746 32.2505 2.90356 32.3816 2.68381 32.3898C1.56958 32.4318 0.360305 33.4247 0.0500654 34.8914C-0.294645 36.5207 1.20687 38.1533 2.52362 38.3311C3.85126 38.5131 6.03764 38.156 6.43126 35.7574C6.72528 33.9663 5.36748 33.0904 4.66031 32.7614C4.43904 32.6585 4.33766 32.4088 4.41598 32.1824C5.52158 28.9903 7.50189 17.5957 8.22984 13.2879C8.31069 12.8091 8.98972 12.7405 9.16867 13.1936C11.1753 18.2723 13.8519 27.4541 14.7198 30.4846C14.8754 31.0281 15.4672 31.3324 16.0162 31.1513L20.0529 29.822C20.5545 29.6568 20.8404 29.1422 20.7078 28.6426L20.2095 26.7668C20.1142 26.4075 20.1467 26.0255 20.3102 25.6901C21.8373 22.5571 22.68 19.3549 23.8488 14.4884C24.4525 11.5025 24.6419 11.97 24.927 11.9648C25.1384 11.9609 25.7254 13.4361 25.9196 13.9194C26.8308 16.1881 31.2083 24.0208 32.3335 25.8815C32.7469 26.565 33.1919 26.4586 33.6281 26.3285L37.6101 24.5112C37.9738 24.3452 38.1101 23.9084 37.9026 23.573L35.303 19.3717Z" fill="black"/>
</svg>
