<svg width="49" height="50" viewBox="0 0 49 50" fill="none" xmlns="http://www.w3.org/2000/svg">
<path d="M44.6884 24.6858C39.8959 16.911 35.8959 6.62496 34.6504 3.09661C34.3462 2.23513 33.5181 2.04615 32.8764 2.03973L27.5895 1.69707C26.7277 1.82573 26.5355 2.38721 26.6539 2.9195C29.2521 14.5861 26.7113 25.1173 25.3442 28.9011C25.1398 29.4657 24.3335 29.4388 24.1661 28.8622C22.5686 23.3636 18.3748 10.9946 17.3343 7.93755C17.186 7.50216 16.836 7.16719 16.3948 7.03757L11.5667 5.61718C11.2978 5.53825 11.1153 5.28991 11.1191 5.00949C11.1368 3.61028 11.0893 1.5944 11.0627 0.606834C11.0534 0.275398 10.7867 0.00941086 10.4553 0.000427246L10.4328 0.000110626C10.0777 -0.00951385 9.78858 0.278927 9.79499 0.634102C10.102 18.2201 4.90207 37.8652 3.99504 41.1504C3.92092 41.4186 3.67547 41.589 3.3973 41.5995C1.98686 41.6541 0.456092 42.9442 0.0633754 44.8497C-0.372977 46.9667 1.52772 49.0878 3.19452 49.3188C4.87512 49.5553 7.64275 49.0913 8.14103 45.9749C8.51321 43.6478 6.79443 42.5098 5.89926 42.0824C5.61916 41.9486 5.49083 41.6242 5.58997 41.33C6.9895 37.1828 9.49628 22.3782 10.4178 16.7814C10.5201 16.1593 11.3797 16.0701 11.6062 16.6588C14.1463 23.2574 17.5345 35.1868 18.633 39.1242C18.83 39.8304 19.5792 40.2257 20.2742 39.9905L25.384 38.2634C26.0189 38.0487 26.3809 37.3801 26.2131 36.731L25.5823 34.2939C25.4616 33.827 25.5027 33.3307 25.7097 32.895C27.6428 28.8244 28.7096 24.6639 30.189 18.341C30.9533 14.4617 31.1929 15.069 31.5539 15.0623C31.8215 15.0571 32.5646 16.9739 32.8103 17.6018C33.9638 20.5494 39.5051 30.726 40.9294 33.1436C41.4527 34.0317 42.0161 33.8934 42.5682 33.7243L47.6088 31.3632C48.0692 31.1476 48.2418 30.58 47.979 30.1443L44.6884 24.6858Z" fill="black"/>
</svg>
