<svg width="38" height="38" viewBox="0 0 38 38" fill="none" xmlns="http://www.w3.org/2000/svg">
<path d="M33.7356 15.0157C33.7322 15.0124 33.7288 15.0056 33.7221 14.9922C31.0983 10.4779 25.3294 8.9373 20.8118 11.5375C20.8084 11.5375 20.8017 11.5443 20.7882 11.551H20.7849L12.3551 16.4453C11.3527 17.0306 11.0096 18.3156 11.5916 19.3214C12.1735 20.3272 13.4618 20.6669 14.4676 20.085L22.8839 15.1974C22.8873 15.194 22.894 15.1906 22.9074 15.1839C25.4135 13.7341 28.6226 14.5885 30.0791 17.0878C30.0791 17.0912 30.0858 17.0979 30.0892 17.108C31.539 19.6141 30.6846 22.8299 28.1752 24.283L19.7488 29.1774C18.743 29.7627 18.4033 31.0477 18.9852 32.0534C19.5705 33.0592 20.8555 33.399 21.8613 32.817L30.2876 27.926C34.7985 25.3023 36.3358 19.5333 33.7356 15.0157Z" fill="black"/>
<path d="M26.6447 21.6492C27.6505 21.0672 27.9903 19.7789 27.4083 18.7731C26.823 17.7673 25.538 17.4276 24.5323 18.0095L16.1194 22.8938C16.1194 22.8938 16.116 22.8938 16.116 22.8971C16.1126 22.8971 16.1059 22.9039 16.0925 22.9106C13.5864 24.357 10.3773 23.506 8.9208 21.0067C8.9208 21.0033 8.91744 20.9966 8.91071 20.9865C7.46091 18.4771 8.31868 15.2646 10.8247 13.8115C10.8281 13.8115 10.8281 13.8081 10.8314 13.8081L19.2511 8.92048C20.2535 8.33854 20.5966 7.0502 20.0113 6.04778C19.4294 5.042 18.141 4.70226 17.1386 5.2842L8.71225 10.1718C4.20137 12.7922 2.66411 18.5645 5.26434 23.0788C5.26434 23.0821 5.27106 23.0889 5.27779 23.1023C7.90157 27.6166 13.6705 29.1572 18.1881 26.557C18.1915 26.557 18.1982 26.5502 18.2117 26.5435C18.2117 26.5435 18.215 26.5435 18.215 26.5401L26.6447 21.6492Z" fill="black"/>
</svg>
